<svg xmlns="http://www.w3.org/2000/svg" viewBox="0 0 680.8 92" fill="#153E2D"><path d="M650.5,54.9c-.8-2.6-1.9-5-3.4-7.2-1.4-2-3.1-3.9-5-5.4-3.5-2.8-7.6-4.8-12-5.8-1.9-.4-3.9-.7-5.9-.8h-36.5c-1.9.1-3.9-.5-5.3-1.9-1.3-1.5-2-3.5-1.8-5.5-.1-2,.6-4,1.9-5.6,1.4-1.4,3.3-2.1,5.2-1.9h56.1V.1h-56.1c-3,0-6.1.5-9,1.5-7,2.2-12.7,7.1-16,13.6-3.7,8.3-3.7,17.9,0,26.2,1.7,3.4,4,6.4,7,8.7,2.7,2.2,5.7,3.8,9,4.8,2.9.9,5.9,1.4,9,1.5h45.2c1,0,2.1.2,3.1.6.8.3,1.6.8,2.2,1.5.6.7,1.1,1.5,1.4,2.3.4,1,.5,2.1.5,3.2.1,2-.5,4-1.9,5.5-1.4,1.4-3.3,2.1-5.3,1.9h-63.3V92H624c2,0,4-.2,5.9-.7,2.1-.5,4.2-1.1,6.2-2.1,2.1-1,4.1-2.1,5.9-3.6,2-1.5,3.7-3.4,5.1-5.4,1.5-2.2,2.6-4.7,3.4-7.2.9-3,1.3-6,1.3-9.1,0-3-.4-6.1-1.3-9Z"/><path d="M184.2,11.1c-3.5-3.5-7.7-6.2-12.3-8.1-4.9-2-10.1-3-15.4-2.9h-21.4c-5.3,0-10.5.9-15.4,2.9-4.6,1.9-8.8,4.6-12.3,8.1-3.5,3.5-6.3,7.7-8.1,12.3-2,4.9-3,10.2-2.9,15.5v14.2c0,5.3,1,10.6,2.9,15.6,1.9,4.6,4.6,8.8,8.1,12.3,3.5,3.5,7.7,6.3,12.3,8.1,4.9,2,10.1,2.9,15.4,2.9h21.4c5.3,0,10.5-.9,15.4-2.9,4.6-1.8,8.8-4.6,12.3-8.1,3.5-3.5,6.3-7.7,8.1-12.3,2-4.9,3-10.2,2.9-15.6v-14.2c0-5.3-.9-10.6-2.9-15.5-1.7-4.7-4.5-8.9-8.1-12.4ZM135.2,20.7h21.4c2.5,0,5.1.4,7.5,1.3,4.3,1.6,7.7,5,9.3,9.3.9,2.4,1.4,5,1.3,7.6v14.2c0,2.6-.4,5.2-1.3,7.6-.8,2.1-2.1,4.1-3.7,5.7-1.6,1.6-3.6,2.8-5.7,3.7-2.4.9-4.9,1.4-7.5,1.3h-21.3c-2.6,0-5.1-.4-7.5-1.3-2.1-.8-4.1-2.1-5.7-3.7-1.6-1.6-2.9-3.5-3.7-5.7-.9-2.4-1.4-5-1.3-7.6v-14.2c0-2.6.4-5.2,1.3-7.6.8-2.1,2.1-4,3.7-5.7,1.6-1.6,3.6-2.8,5.7-3.7,2.4-.9,5-1.4,7.5-1.3Z"/><path d="M296.1,11.1c-3.5-3.5-7.7-6.2-12.3-8.1-4.9-2-10.1-3-15.4-2.9h-21.4c-5.3,0-10.5.9-15.4,2.9-4.6,1.9-8.8,4.6-12.3,8.1-3.5,3.5-6.3,7.7-8.1,12.3-2,4.9-3,10.2-2.9,15.5v14.2c-.1,5.3.9,10.6,2.9,15.6,1.9,4.6,4.6,8.8,8.1,12.3,3.5,3.5,7.7,6.3,12.3,8.1,4.9,2,10.1,2.9,15.4,2.9h21.4c5.3,0,10.5-.9,15.4-2.9,9.3-3.7,16.7-11.1,20.4-20.4,2-4.9,3-10.2,2.9-15.6v-14.2c0-5.3-.9-10.6-2.9-15.5-1.7-4.7-4.5-8.9-8.1-12.4ZM247,20.7h21.4c2.5,0,5.1.4,7.5,1.3,4.3,1.6,7.7,5,9.3,9.3.9,2.4,1.4,5,1.3,7.6v14.2c0,2.6-.4,5.2-1.3,7.6-.8,2.1-2.1,4.1-3.7,5.7-1.6,1.6-3.6,2.8-5.7,3.7-2.4.9-5,1.4-7.5,1.3h-21.3c-2.6,0-5.1-.4-7.5-1.3-2.1-.8-4.1-2.1-5.7-3.7-1.6-1.6-2.9-3.5-3.7-5.7-.9-2.4-1.4-5-1.3-7.6v-14.2c0-2.6.4-5.2,1.3-7.6.8-2.1,2.1-4,3.7-5.7,1.6-1.6,3.6-2.8,5.7-3.7,2.4-.9,5-1.4,7.5-1.3Z"/><path d="M401.7,11.1c-3.5-3.5-7.7-6.2-12.3-8.1-4.9-2-10.1-3-15.4-2.9h-42.6c-1.4,0-2.8.3-4.1.8-1.3.5-2.4,1.3-3.3,2.3-.9,1-1.7,2.1-2.2,3.3-.5,1.3-.8,2.6-.8,4v71.1c0,1.4.3,2.8.8,4.1.5,1.2,1.3,2.4,2.2,3.3,1,.9,2.1,1.7,3.3,2.2,1.3.5,2.7.8,4.1.8H374c5.3,0,10.5-1,15.4-2.9,4.6-1.9,8.8-4.6,12.3-8.1,3.5-3.5,6.3-7.7,8.1-12.3,2-4.9,3-10.2,2.9-15.5v-14.4c0-5.3-1-10.6-2.9-15.5-1.8-4.7-4.6-8.9-8.1-12.4ZM374,71.4h-32.4V20.7H374c2.6,0,5.1.4,7.5,1.3,2.1.8,4.1,2.1,5.7,3.7,1.6,1.6,2.8,3.5,3.7,5.7.9,2.4,1.3,5,1.3,7.6v14.2c0,2.6-.4,5.2-1.3,7.6-.8,2.1-2.1,4.1-3.7,5.7-1.6,1.6-3.6,2.8-5.7,3.7-2.4.9-5,1.3-7.5,1.3Z"/><rect x="426.8" y=".1" width="20.6" height="91.9"/><path d="M484.9,3c-9.3,3.7-16.7,11.1-20.5,20.4-2,4.9-3,10.2-2.9,15.5v14.2c0,5.3,1,10.6,2.9,15.5,3.7,9.3,11.2,16.7,20.5,20.4,4.9,2,10.1,3,15.4,2.9h45V71.3h-45c-2.6,0-5.1-.4-7.5-1.3-2.1-.8-4.1-2.1-5.7-3.7-1.6-1.6-2.9-3.5-3.7-5.7-.9-2.4-1.4-5-1.3-7.6v-14.2c0-2.6.4-5.2,1.3-7.6.8-2.1,2.1-4,3.7-5.7,1.6-1.6,3.6-2.8,5.7-3.7,2.4-.9,5-1.4,7.5-1.3h45V.1h-45c-5.3,0-10.5,1-15.4,2.9Z"/><path d="M19.2,73.8c-.8-.8-1.7-1.3-2.7-1.8-1.1-.4-2.2-.6-3.4-.6h-4.6c-1.2,0-2.3.2-3.4.6-2,.8-3.7,2.4-4.5,4.5-.4,1-.6,2.2-.6,3.4v3.6c0,1.2.2,2.3.7,3.4.4,1,1,1.9,1.8,2.7.8.8,1.7,1.4,2.7,1.8,1,.4,2.1.6,3.3.6h4.7c1.2,0,2.3-.2,3.4-.6,1-.4,1.9-1,2.7-1.8.8-.8,1.4-1.7,1.8-2.7.4-1.1.6-2.2.6-3.4v-3.6c0-1.2-.2-2.3-.6-3.4-.5-1.1-1.1-2.1-1.9-2.8Z"/><path d="M21.1,26.8c0-3.3,2.6-5.9,5.9-5.9h56.7V0H27.5C12.4,0,.2,12.2.2,27.2v9c0,15,12.2,27.3,27.2,27.3h29.6V42.7H27c-3.3,0-5.9-2.6-5.9-5.9v-10Z"/></svg>
