<svg xmlns="http://www.w3.org/2000/svg" viewBox="0 0 342.6 105.2" fill="#153E2D"><circle cx="52.6" cy="52.6" r="52.6" fill="#153E2D" opacity="0.85"/><path d="M255.2,34.3h11.4v23.5c3.7-5.4,11.7-7,18.1-4.4s8.4,7,8.7,7.7c.7,1.3,1,3,1.3,4.4,1.7,10.4-1.7,20.8,1.3,30.8H285c-3-7-1.3-15.1-1.3-22.8,0-2,0-4.4-1-6.4-1.3-2.7-4.4-4.7-7.4-4.7s-6,1.7-7.4,4.4c-1.3,2.3-1.3,5-1.3,7.7v21.8h-11.4V34.3ZM210.6,73.5c.3-12.4-7.7-21.8-19.4-21.4-8,0-15.1,4-18.8,11.1-4,7.7-3.7,18.1,1.3,25.1,7.4,10.1,22.1,12.1,36.2,5.4l-3.7-9c-11.7,5-24.5,3.7-25.5-6.7h29.8v-4.5ZM181.1,69.1c.7-2.3,2-4,3.7-5.4,3.4-2.7,9.4-3,12.7-.3,1.7,1.3,2.7,3,3.4,5.7h-19.8ZM144.6,68.1s0-6.7-5.4-6.7h-12.4v34.8h-11.4v-34.8h-8.7v-9.4h8.7v-7.7c0-6.4,6-16.4,19.4-16.4s18.4,11.4,18.4,11.4l-8.7,6s-2.3-7-9.7-7c-3.4,0-8,2.3-8,7.7v5.7h17.4c7.7,0,9.7,6,9.7,6,3-6.7,13.1-6,15.4-5.7v9c-7-.3-13.7,3.7-13.7,11.7v23.6h-11.4c0,0,.3-27.9.3-27.9ZM247.8,74.8c-3.7-3.7-12.4-4.7-18.1-5.7-2.7-.7-5-1.3-5-4,0-3.4,3.4-4.4,6.7-4.4s7,1.3,8.7,4.4l8.7-4.7c-4.7-8.4-18.1-10.4-26.5-6.7-2.7,1-4.7,2.7-6,4.7-3.4,4.4-3,11.7,1,15.4,2,2,5.4,3.4,9.7,4.4l8,1.7c3,.7,5.4,1.3,5.4,4.4,0,3.7-4,4.7-7.7,4.7-9,0-11.1-8.7-11.1-8.7l-10.4,3.4c.7,2.7,4.4,14.4,21.1,14.4,9.7,0,18.1-3.7,18.1-13.7,0-.6-1-3.2-3-5.3ZM340.6,88.2c-2,0-3.7-1.3-3.7-4,0-1.3-.3-6.4-.3-7.7,0-7.4.3-14.7-5-19.8-5.7-5.7-18.8-6.4-26.1-1.7-2.7,1.7-5,3.7-6.7,6l6.7,6.7c2.7-4.4,6.4-6.4,10.7-6.4,4-.3,7.7,1.7,8.7,5.7-9,2.3-20.4,3.4-25.5,12.4-2.3,4.4-1.7,10.1,1.7,13.7,2.7,3,7,4,11.1,4,6.4,0,12.4-1.3,16.4-7,2,4.7,6.4,7,11.7,7,.7,0,1.7-.3,2.3-.3v-8.7h-1.9ZM325.2,79.2c.3,6.4-5,10.1-10.7,10.1-3,0-5.4-1.3-5.4-4.7s2.7-4.7,6-5.4l9.7-2.7c0-.2.3,2.5.3,2.5Z"/></svg>
